<svg width="28" height="28" viewBox="0 0 28 28" fill="none" xmlns="http://www.w3.org/2000/svg">
<path d="M8.7259 18.185C7.98393 18.185 7.42628 18.0012 7.05293 17.6337C6.68431 17.2613 6.5 16.7053 6.5 15.9654V8.71957C6.5 7.97971 6.68431 7.42601 7.05293 7.05847C7.42628 6.68616 7.98393 6.5 8.7259 6.5H15.8431C16.5803 6.5 17.1333 6.68616 17.5019 7.05847C17.8752 7.43079 18.0619 7.98449 18.0619 8.71957V10.352H16.9206V8.78401C16.9206 8.41169 16.8237 8.13007 16.63 7.93914C16.4409 7.74821 16.1716 7.65274 15.8218 7.65274H8.74008C8.38563 7.65274 8.11389 7.74821 7.92486 7.93914C7.73582 8.13007 7.6413 8.41169 7.6413 8.78401V15.901C7.6413 16.2733 7.73582 16.5549 7.92486 16.7458C8.11389 16.9368 8.38563 17.0322 8.74008 17.0322H10.5194V18.185H8.7259ZM12.164 21.5C11.422 21.5 10.8644 21.3138 10.491 20.9415C10.1224 20.574 9.93809 20.0203 9.93809 19.2804V12.0346C9.93809 11.2947 10.1224 10.7411 10.491 10.3735C10.8644 10.0012 11.422 9.81504 12.164 9.81504H19.2812C20.0184 9.81504 20.5714 10.0012 20.94 10.3735C21.3133 10.7458 21.5 11.2995 21.5 12.0346V19.2804C21.5 20.0155 21.3133 20.5692 20.94 20.9415C20.5714 21.3138 20.0184 21.5 19.2812 21.5H12.164ZM12.1782 20.3473H19.2599C19.6096 20.3473 19.879 20.2518 20.0681 20.0609C20.2618 19.8699 20.3587 19.5883 20.3587 19.216V12.099C20.3587 11.7267 20.2618 11.4451 20.0681 11.2542C19.879 11.0632 19.6096 10.9678 19.2599 10.9678H12.1782C11.8237 10.9678 11.552 11.0632 11.3629 11.2542C11.1739 11.4451 11.0794 11.7267 11.0794 12.099V19.216C11.0794 19.5883 11.1739 19.8699 11.3629 20.0609C11.552 20.2518 11.8237 20.3473 12.1782 20.3473Z" fill="black" fill-opacity="0.6"/>
</svg>
