<svg width="28" height="28" viewBox="0 0 28 28" fill="none" xmlns="http://www.w3.org/2000/svg">
<path d="M12.8652 6.21032C12.8652 6.04626 12.8971 5.92321 12.9609 5.84118C13.0293 5.75915 13.1159 5.72041 13.2207 5.72497C13.3301 5.72497 13.4486 5.77054 13.5762 5.86169L15.75 7.39294C15.9095 7.50687 15.9893 7.63675 15.9893 7.78259C15.9893 7.92842 15.9095 8.05602 15.75 8.1654L13.5693 9.69665C13.4463 9.78324 13.3301 9.82881 13.2207 9.83337C13.1159 9.83337 13.0293 9.79235 12.9609 9.71032C12.8971 9.62829 12.8652 9.50752 12.8652 9.34802V6.21032ZM8.18945 14.0648C8.18945 14.917 8.36035 15.7168 8.70215 16.4642C9.0485 17.2071 9.5179 17.8451 10.1104 18.3783C10.2607 18.5196 10.3382 18.6608 10.3428 18.8021C10.3519 18.9434 10.3177 19.0687 10.2402 19.1781C10.1445 19.3057 10.0101 19.3855 9.83691 19.4174C9.66374 19.4493 9.49967 19.3946 9.34473 19.2533C8.62923 18.6153 8.06413 17.8474 7.64941 16.9496C7.2347 16.0518 7.02734 15.0902 7.02734 14.0648C7.02734 13.1032 7.20736 12.2009 7.56738 11.3578C7.92741 10.5147 8.42643 9.77412 9.06445 9.1361C9.70703 8.49808 10.4499 7.99906 11.293 7.63903C12.1361 7.27445 13.0407 7.09216 14.0068 7.09216C14.1663 7.09671 14.3008 7.15596 14.4102 7.26989C14.5241 7.37927 14.5811 7.51143 14.5811 7.66638C14.5811 7.83044 14.5241 7.96944 14.4102 8.08337C14.2962 8.1973 14.1595 8.25427 14 8.25427C13.1979 8.25427 12.446 8.40466 11.7441 8.70544C11.0423 9.00622 10.4248 9.42321 9.8916 9.95641C9.3584 10.4851 8.94141 11.1026 8.64062 11.809C8.33984 12.5108 8.18945 13.2627 8.18945 14.0648ZM15.1348 21.9125C15.1348 22.0765 15.1006 22.1996 15.0322 22.2816C14.9684 22.3636 14.8818 22.4024 14.7725 22.3978C14.6676 22.3978 14.5514 22.3522 14.4238 22.2611L12.25 20.7367C12.0905 20.6228 12.0107 20.4929 12.0107 20.347C12.0153 20.2012 12.0951 20.0736 12.25 19.9642L14.4307 18.433C14.5537 18.3464 14.6676 18.3031 14.7725 18.3031C14.8818 18.2985 14.9684 18.3373 15.0322 18.4193C15.1006 18.5013 15.1348 18.6221 15.1348 18.7816V21.9125ZM19.8105 14.0648C19.8105 13.2126 19.6374 12.4151 19.291 11.6722C18.9492 10.9248 18.4844 10.2823 17.8965 9.7445C17.7415 9.60778 17.6595 9.46878 17.6504 9.32751C17.6458 9.18623 17.6823 9.05863 17.7598 8.9447C17.8555 8.81709 17.9899 8.73962 18.1631 8.71227C18.3363 8.68037 18.5003 8.73506 18.6553 8.87634C19.3708 9.51436 19.9359 10.2823 20.3506 11.18C20.7653 12.0778 20.9727 13.0394 20.9727 14.0648C20.9727 15.0264 20.7926 15.9287 20.4326 16.7718C20.0726 17.6104 19.5713 18.3509 18.9287 18.9935C18.2907 19.6315 17.5501 20.1306 16.707 20.4906C15.8639 20.8552 14.9593 21.0375 13.9932 21.0375C13.8382 21.0329 13.7038 20.9737 13.5898 20.8597C13.4805 20.7504 13.4258 20.6159 13.4258 20.4564C13.4258 20.2969 13.4827 20.1602 13.5967 20.0463C13.7106 19.9323 13.8451 19.8754 14 19.8754C14.8021 19.8754 15.554 19.725 16.2559 19.4242C16.9577 19.1234 17.5752 18.7064 18.1084 18.1732C18.6416 17.64 19.0586 17.0225 19.3594 16.3207C19.6602 15.6188 19.8105 14.8669 19.8105 14.0648Z" fill="black" fill-opacity="0.6"/>
</svg>
